# xmcd
#
# Track frame offsets:
#	150
#	17436
#	34872
#	58321
#	66308
#	80538
#	94768
#	109171
#	123574
#	145880
#	168186
#	190492
#	212798
#	235104
#
# Disc length: 3432 seconds
#
# Revision: 1
# Processed by: cddbd v1.5.2PL0 Copyright (c) Steve Scherf et al.
# Submitted via: audiograbber 1.82.01
#
DISCID=c70d660e
DTITLE=Simon and Garfunkel - Greatest Hits - Greatest Hits
DYEAR=1900
DGENRE=
TTITLE0=Mrs. Robinson
TTITLE1=For Emily, Whenever I May Find Her
TTITLE2=The Boxer
TTITLE3=The 59th Street Bridge Song (Feelin' Groovy)
TTITLE4=The Sound Of Silence
TTITLE5=I Am A Rock
TTITLE6=Scarborough Fair - Canticle
TTITLE7=Homeward Bound
TTITLE8=Bridge Over Troubled Water
TTITLE9=America
TTITLE10=Kathy's Song
TTITLE11=El Condor Pasa (If I Could)
TTITLE12=Bookends
TTITLE13=Cecilia
EXTD=
EXTT0=
EXTT1=
EXTT2=
EXTT3=
EXTT4=
EXTT5=
EXTT6=
EXTT7=
EXTT8=
EXTT9=
EXTT10=
EXTT11=
EXTT12=
EXTT13=
PLAYORDER=
